<svg width="40" height="40" viewBox="0 0 40 40" fill="none" xmlns="http://www.w3.org/2000/svg">
<path d="M20 38C29.9411 38 38 29.9411 38 20C38 10.0589 29.9411 2 20 2C10.0589 2 2 10.0589 2 20C2 29.9411 10.0589 38 20 38Z" fill="#ED2224"/>
<path d="M22.8125 10.4375H30.8281V29.5625L22.8125 10.4375ZM17.1875 10.4375H9.17188V29.5625L17.1875 10.4375ZM19.9297 17.3984L16.5547 25.6953H20.2109L21.8281 29.5625H25.0625L19.9297 17.3984Z" fill="white"/>
<path d="M20 36C11.1634 36 4 28.8366 4 20H0C0 31.0457 8.95431 40 20 40V36ZM36 20C36 28.8366 28.8366 36 20 36V40C31.0457 40 40 31.0457 40 20H36ZM20 4C28.8366 4 36 11.1634 36 20H40C40 8.95431 31.0457 0 20 0V4ZM20 0C8.95431 0 0 8.95431 0 20H4C4 11.1634 11.1634 4 20 4V0Z" fill="#ED2224" fill-opacity="0.5"/>
</svg>
