<svg width="40" height="40" viewBox="0 0 40 40" fill="none" xmlns="http://www.w3.org/2000/svg">
<g clip-path="url(#clip0)">
<path d="M2 20C2 10.0589 10.0589 2 20 2C29.9411 2 38 10.0589 38 20C38 29.9411 29.9411 38 20 38C10.0589 38 2 29.9411 2 20Z" fill="#A9ADB1"/>
<path d="M38.072 20C38.072 29.936 30.008 38 20.072 38C10.136 38 2.07202 29.936 2.07202 20C2.07202 10.064 10.136 2 20.072 2C30.008 2 38.072 10.064 38.072 20Z" fill="#A9ADB1"/>
<path d="M24.0813 14.2737C22.3827 14.1457 20.9416 15.2393 20.1377 15.2393C19.3219 15.2393 18.0643 14.3013 16.7307 14.3269C14.9798 14.353 13.3659 15.3639 12.4631 16.9596C10.6444 20.1727 11.9988 24.9339 13.7702 27.5411C14.6368 28.8151 15.6703 30.2508 17.0278 30.1986C18.3344 30.1462 18.8287 29.3384 20.4082 29.3384C21.9866 29.3384 22.4319 30.1986 23.8137 30.1729C25.22 30.1462 26.1111 28.8724 26.9713 27.5913C27.9667 26.1126 28.3757 24.6808 28.4 24.6051C28.3689 24.5931 25.6585 23.5347 25.6315 20.3563C25.607 17.699 27.7624 16.4217 27.8605 16.3603C26.6369 14.5261 24.747 14.3239 24.0813 14.2737ZM23.0332 12.5525C23.7546 11.6651 24.24 10.4292 24.1064 9.19995C23.068 9.24191 21.8123 9.90389 21.0675 10.7907C20.4007 11.5764 19.8149 12.8346 19.9741 14.0387C21.1313 14.1297 22.3125 13.4404 23.0332 12.5525Z" fill="white"/>
</g>
<path d="M20 36C11.1634 36 4 28.8366 4 20H0C0 31.0457 8.95431 40 20 40V36ZM36 20C36 28.8366 28.8366 36 20 36V40C31.0457 40 40 31.0457 40 20H36ZM20 4C28.8366 4 36 11.1634 36 20H40C40 8.95431 31.0457 0 20 0V4ZM20 0C8.95431 0 0 8.95431 0 20H4C4 11.1634 11.1634 4 20 4V0Z" fill="#A9ADB1" fill-opacity="0.5"/>
<defs>
<clipPath id="clip0">
<path d="M2 20C2 10.0589 10.0589 2 20 2C29.9411 2 38 10.0589 38 20C38 29.9411 29.9411 38 20 38C10.0589 38 2 29.9411 2 20Z" fill="white"/>
</clipPath>
</defs>
</svg>
